%TF.GenerationSoftware,KiCad,Pcbnew,10.0.0*%
%TF.CreationDate,2026-04-10T14:49:03+02:00*%
%TF.ProjectId,BOARD_V1,424f4152-445f-4563-912e-6b696361645f,rev?*%
%TF.SameCoordinates,Original*%
%TF.FileFunction,Paste,Top*%
%TF.FilePolarity,Positive*%
%FSLAX46Y46*%
G04 Gerber Fmt 4.6, Leading zero omitted, Abs format (unit mm)*
G04 Created by KiCad (PCBNEW 10.0.0) date 2026-04-10 14:49:03*
%MOMM*%
%LPD*%
G01*
G04 APERTURE LIST*
G04 Aperture macros list*
%AMRoundRect*
0 Rectangle with rounded corners*
0 $1 Rounding radius*
0 $2 $3 $4 $5 $6 $7 $8 $9 X,Y pos of 4 corners*
0 Add a 4 corners polygon primitive as box body*
4,1,4,$2,$3,$4,$5,$6,$7,$8,$9,$2,$3,0*
0 Add four circle primitives for the rounded corners*
1,1,$1+$1,$2,$3*
1,1,$1+$1,$4,$5*
1,1,$1+$1,$6,$7*
1,1,$1+$1,$8,$9*
0 Add four rect primitives between the rounded corners*
20,1,$1+$1,$2,$3,$4,$5,0*
20,1,$1+$1,$4,$5,$6,$7,0*
20,1,$1+$1,$6,$7,$8,$9,0*
20,1,$1+$1,$8,$9,$2,$3,0*%
G04 Aperture macros list end*
%ADD10RoundRect,0.155000X-0.212500X-0.155000X0.212500X-0.155000X0.212500X0.155000X-0.212500X0.155000X0*%
%ADD11RoundRect,0.090000X-0.139000X-0.090000X0.139000X-0.090000X0.139000X0.090000X-0.139000X0.090000X0*%
%ADD12R,1.250000X0.600000*%
%ADD13R,3.790000X1.200000*%
%ADD14R,1.400000X1.450000*%
%ADD15R,0.600000X1.000000*%
%ADD16R,0.850000X0.950000*%
%ADD17RoundRect,0.090000X-0.090000X0.139000X-0.090000X-0.139000X0.090000X-0.139000X0.090000X0.139000X0*%
%ADD18R,0.350000X0.500000*%
%ADD19R,1.800000X1.000000*%
%ADD20RoundRect,0.090000X0.090000X-0.139000X0.090000X0.139000X-0.090000X0.139000X-0.090000X-0.139000X0*%
%ADD21R,1.700000X0.600000*%
%ADD22R,2.700000X1.000000*%
%ADD23RoundRect,0.090000X0.139000X0.090000X-0.139000X0.090000X-0.139000X-0.090000X0.139000X-0.090000X0*%
%ADD24RoundRect,0.155000X0.155000X-0.212500X0.155000X0.212500X-0.155000X0.212500X-0.155000X-0.212500X0*%
%ADD25RoundRect,0.237500X0.237500X-0.300000X0.237500X0.300000X-0.237500X0.300000X-0.237500X-0.300000X0*%
%ADD26RoundRect,0.155000X-0.155000X0.212500X-0.155000X-0.212500X0.155000X-0.212500X0.155000X0.212500X0*%
%ADD27R,0.660000X0.410000*%
%ADD28RoundRect,0.155000X0.212500X0.155000X-0.212500X0.155000X-0.212500X-0.155000X0.212500X-0.155000X0*%
%ADD29RoundRect,0.237500X-0.300000X-0.237500X0.300000X-0.237500X0.300000X0.237500X-0.300000X0.237500X0*%
%ADD30RoundRect,0.237500X0.300000X0.237500X-0.300000X0.237500X-0.300000X-0.237500X0.300000X-0.237500X0*%
%ADD31R,1.150000X0.600000*%
%ADD32R,1.500000X0.550000*%
%ADD33R,2.000000X1.500000*%
%ADD34R,1.200000X2.200000*%
%ADD35R,0.700000X0.200000*%
%ADD36C,0.355600*%
%ADD37C,0.370000*%
%ADD38R,0.450000X0.200000*%
%ADD39R,0.300000X2.800000*%
%ADD40R,0.800000X1.800000*%
%ADD41R,0.500000X1.000000*%
%ADD42R,0.900000X1.600000*%
%ADD43R,0.500000X0.850000*%
%ADD44R,0.900000X0.440000*%
%ADD45R,0.300000X0.340000*%
%ADD46R,1.500000X2.000000*%
%ADD47RoundRect,0.150000X-0.425000X0.150000X-0.425000X-0.150000X0.425000X-0.150000X0.425000X0.150000X0*%
%ADD48RoundRect,0.075000X-0.500000X0.075000X-0.500000X-0.075000X0.500000X-0.075000X0.500000X0.075000X0*%
%ADD49RoundRect,0.250000X-0.750000X0.840000X-0.750000X-0.840000X0.750000X-0.840000X0.750000X0.840000X0*%
%ADD50R,0.500000X0.350000*%
%ADD51R,1.000000X1.800000*%
%ADD52R,0.600000X1.100000*%
%ADD53R,0.600000X0.470000*%
%ADD54R,0.600000X0.600000*%
%ADD55R,0.875000X0.775000*%
G04 APERTURE END LIST*
D10*
%TO.C,C36*%
X110187500Y-125230000D03*
X111322500Y-125230000D03*
%TD*%
D11*
%TO.C,C34*%
X113417500Y-126060000D03*
X114282500Y-126060000D03*
%TD*%
D10*
%TO.C,C76*%
X125372500Y-102350000D03*
X126507500Y-102350000D03*
%TD*%
D12*
%TO.C,J3*%
X114097000Y-99270000D03*
X114097000Y-100370000D03*
X114097000Y-101470000D03*
X114097000Y-102570000D03*
X114097000Y-103670000D03*
X114097000Y-104770000D03*
X114097000Y-105870000D03*
X114097000Y-106970000D03*
D13*
X116577000Y-108120000D03*
D14*
X115822000Y-97645000D03*
D15*
X117072000Y-97420000D03*
D16*
X118047000Y-98345000D03*
%TD*%
D17*
%TO.C,R8*%
X132000000Y-111417500D03*
X132000000Y-112282500D03*
%TD*%
D18*
%TO.C,IC5*%
X118350000Y-131470000D03*
X118850000Y-131470000D03*
X119350000Y-131470000D03*
X119850000Y-131470000D03*
X119850000Y-129670000D03*
X119350000Y-129670000D03*
X118850000Y-129670000D03*
X118350000Y-129670000D03*
D19*
X119100000Y-130570000D03*
%TD*%
D20*
%TO.C,R24*%
X105200000Y-104822500D03*
X105200000Y-103957500D03*
%TD*%
D17*
%TO.C,C74*%
X119040000Y-98417500D03*
X119040000Y-99282500D03*
%TD*%
D21*
%TO.C,J6*%
X101990000Y-105455000D03*
X101990000Y-106705000D03*
X101990000Y-107955000D03*
X101990000Y-109205000D03*
D22*
X98790000Y-103605000D03*
X98790000Y-111055000D03*
%TD*%
D23*
%TO.C,C67*%
X107242500Y-112890000D03*
X106377500Y-112890000D03*
%TD*%
D24*
%TO.C,C69*%
X108250000Y-128317500D03*
X108250000Y-127182500D03*
%TD*%
D25*
%TO.C,C49*%
X115350000Y-132562500D03*
X115350000Y-130837500D03*
%TD*%
D11*
%TO.C,C52*%
X116555000Y-129790000D03*
X117420000Y-129790000D03*
%TD*%
D26*
%TO.C,C72*%
X119170000Y-105912500D03*
X119170000Y-107047500D03*
%TD*%
D27*
%TO.C,L2*%
X116510000Y-121975000D03*
X116510000Y-122985000D03*
%TD*%
D17*
%TO.C,R16*%
X107140000Y-119185000D03*
X107140000Y-120050000D03*
%TD*%
D28*
%TO.C,C38*%
X113510000Y-125220000D03*
X112375000Y-125220000D03*
%TD*%
D17*
%TO.C,R19*%
X107840000Y-119185000D03*
X107840000Y-120050000D03*
%TD*%
%TO.C,R26*%
X104500000Y-103955000D03*
X104500000Y-104820000D03*
%TD*%
D11*
%TO.C,R21*%
X104607500Y-117170000D03*
X105472500Y-117170000D03*
%TD*%
D20*
%TO.C,R25*%
X105900000Y-104822500D03*
X105900000Y-103957500D03*
%TD*%
D11*
%TO.C,C75*%
X125357500Y-101440000D03*
X126222500Y-101440000D03*
%TD*%
D29*
%TO.C,C53*%
X117397500Y-125660000D03*
X119122500Y-125660000D03*
%TD*%
D20*
%TO.C,C41*%
X127130000Y-130712500D03*
X127130000Y-129847500D03*
%TD*%
D28*
%TO.C,C35*%
X113507500Y-124300000D03*
X112372500Y-124300000D03*
%TD*%
D17*
%TO.C,R12*%
X108320000Y-113907500D03*
X108320000Y-114772500D03*
%TD*%
D30*
%TO.C,C50*%
X112862500Y-130100000D03*
X111137500Y-130100000D03*
%TD*%
D20*
%TO.C,C81*%
X132200000Y-116782500D03*
X132200000Y-115917500D03*
%TD*%
D17*
%TO.C,C43*%
X122010000Y-130167500D03*
X122010000Y-131032500D03*
%TD*%
D31*
%TO.C,IC4*%
X123300000Y-130160000D03*
X123300000Y-131110000D03*
X123300000Y-132060000D03*
X125800000Y-132060000D03*
X125800000Y-130160000D03*
%TD*%
D32*
%TO.C,S1*%
X104500000Y-112475000D03*
X104500000Y-109225000D03*
%TD*%
D20*
%TO.C,C82*%
X106350000Y-110050000D03*
X106350000Y-109185000D03*
%TD*%
D24*
%TO.C,C46*%
X131630000Y-124897500D03*
X131630000Y-123762500D03*
%TD*%
D33*
%TO.C,D2*%
X104970000Y-132590000D03*
X104970000Y-128390000D03*
%TD*%
D17*
%TO.C,R14*%
X110260000Y-127415000D03*
X110260000Y-128280000D03*
%TD*%
%TO.C,C48*%
X109810000Y-129685000D03*
X109810000Y-130550000D03*
%TD*%
D20*
%TO.C,C73*%
X118950000Y-104882500D03*
X118950000Y-104017500D03*
%TD*%
D11*
%TO.C,R13*%
X122075000Y-101200000D03*
X122940000Y-101200000D03*
%TD*%
D17*
%TO.C,R4*%
X108410000Y-129687500D03*
X108410000Y-130552500D03*
%TD*%
D34*
%TO.C,L1*%
X119300000Y-127670000D03*
X117300000Y-127670000D03*
%TD*%
D17*
%TO.C,C42*%
X127130000Y-131627500D03*
X127130000Y-132492500D03*
%TD*%
D35*
%TO.C,FL10*%
X104225000Y-107120000D03*
X104225000Y-107520000D03*
X104225000Y-107920000D03*
X105275000Y-107920000D03*
X105275000Y-107520000D03*
X105275000Y-107120000D03*
%TD*%
D36*
%TO.C,U1*%
X110050001Y-120449999D03*
X110050001Y-119649999D03*
X110050001Y-118850000D03*
X110050001Y-118050000D03*
X110050001Y-117250000D03*
X110050001Y-116450000D03*
X110050001Y-115650000D03*
X110050001Y-114850000D03*
X110050001Y-114050000D03*
X110050001Y-113250000D03*
X110050001Y-112450000D03*
X110050001Y-111650000D03*
X110050001Y-110850000D03*
X110050001Y-110050001D03*
X110850001Y-120449999D03*
X110850001Y-119649999D03*
X110850001Y-118850000D03*
X110850001Y-118050000D03*
X110850001Y-117250000D03*
X110850001Y-116450000D03*
X110850001Y-115650000D03*
X110850001Y-114850000D03*
X110850001Y-114050000D03*
X110850001Y-113250000D03*
X110850001Y-112450000D03*
X110850001Y-111650000D03*
X110850001Y-110850000D03*
X110850001Y-110050001D03*
X111650000Y-120449999D03*
X111650000Y-119649999D03*
X111650000Y-118850000D03*
X111650000Y-118050000D03*
X111650000Y-117250000D03*
X111650000Y-116450000D03*
X111650000Y-115650000D03*
X111650000Y-114850000D03*
X111650000Y-114050000D03*
X111650000Y-113250000D03*
X111650000Y-112450000D03*
X111650000Y-111650000D03*
X111650000Y-110850000D03*
X111650000Y-110050001D03*
X112450000Y-120449999D03*
X112450000Y-119649999D03*
X112450000Y-118850000D03*
X112450000Y-118050000D03*
X112450000Y-117250000D03*
X112450000Y-116450000D03*
X112450000Y-115650000D03*
X112450000Y-114850000D03*
X112450000Y-114050000D03*
X112450000Y-113250000D03*
X112450000Y-112450000D03*
X112450000Y-111650000D03*
X112450000Y-110850000D03*
X112450000Y-110050001D03*
X113250000Y-120449999D03*
X113250000Y-119649999D03*
X113250000Y-118850000D03*
X113250000Y-118050000D03*
X113250000Y-117250000D03*
X113250000Y-116450000D03*
X113250000Y-115650000D03*
X113250000Y-114850000D03*
X113250000Y-114050000D03*
X113250000Y-113250000D03*
X113250000Y-112450000D03*
X113250000Y-111650000D03*
X113250000Y-110850000D03*
X113250000Y-110050001D03*
X114050000Y-120449999D03*
X114050000Y-119649999D03*
X114050000Y-118850000D03*
X114050000Y-118050000D03*
X114050000Y-117250000D03*
X114050000Y-113250000D03*
X114050000Y-112450000D03*
X114050000Y-111650000D03*
X114050000Y-110850000D03*
X114050000Y-110050001D03*
X114850000Y-120449999D03*
X114850000Y-119649999D03*
X114850000Y-118850000D03*
X114850000Y-118050000D03*
X114850000Y-113250000D03*
X114850000Y-112450000D03*
X114850000Y-111650000D03*
X114850000Y-110850000D03*
X114850000Y-110050001D03*
X115650000Y-120449999D03*
X115650000Y-119649999D03*
X115650000Y-118850000D03*
X115650000Y-118050000D03*
X115650000Y-113250000D03*
X115650000Y-112450000D03*
X115650000Y-111650000D03*
X115650000Y-110850000D03*
X115650000Y-110050001D03*
X116450000Y-120449999D03*
X116450000Y-119649999D03*
X116450000Y-118850000D03*
X116450000Y-118050000D03*
X116450000Y-117250000D03*
X116450000Y-113250000D03*
X116450000Y-112450000D03*
X116450000Y-111650000D03*
X116450000Y-110850000D03*
X116450000Y-110050001D03*
X117250000Y-120449999D03*
X117250000Y-119649999D03*
X117250000Y-118850000D03*
X117250000Y-118050000D03*
X117250000Y-117250000D03*
X117250000Y-116450000D03*
X117250000Y-115650000D03*
X117250000Y-114850000D03*
X117250000Y-114050000D03*
X117250000Y-113250000D03*
X117250000Y-112450000D03*
X117250000Y-111650000D03*
X117250000Y-110850000D03*
X117250000Y-110050001D03*
X118050000Y-120449999D03*
X118050000Y-119649999D03*
X118050000Y-118850000D03*
X118050000Y-118050000D03*
X118050000Y-117250000D03*
X118050000Y-116450000D03*
X118050000Y-115650000D03*
X118050000Y-114850000D03*
X118050000Y-114050000D03*
X118050000Y-113250000D03*
X118050000Y-112450000D03*
X118050000Y-111650000D03*
X118050000Y-110850000D03*
X118050000Y-110050001D03*
X118850000Y-120449999D03*
X118850000Y-119649999D03*
X118850000Y-118850000D03*
X118850000Y-118050000D03*
X118850000Y-117250000D03*
X118850000Y-116450000D03*
X118850000Y-115650000D03*
X118850000Y-114850000D03*
X118850000Y-114050000D03*
X118850000Y-113250000D03*
X118850000Y-112450000D03*
X118850000Y-111650000D03*
X118850000Y-110850000D03*
X118850000Y-110050001D03*
X119650000Y-120449999D03*
X119650000Y-119649999D03*
X119650000Y-118850000D03*
X119650000Y-118050000D03*
X119650000Y-117250000D03*
X119650000Y-116450000D03*
X119650000Y-115650000D03*
X119650000Y-114850000D03*
X119650000Y-114050000D03*
X119650000Y-113250000D03*
X119650000Y-112450000D03*
X119650000Y-111650000D03*
X119650000Y-110850000D03*
X119650000Y-110050001D03*
X120449999Y-120449999D03*
X120449999Y-119649999D03*
X120449999Y-118850000D03*
X120449999Y-118050000D03*
X120449999Y-117250000D03*
X120449999Y-116450000D03*
X120449999Y-115650000D03*
X120449999Y-114850000D03*
X120449999Y-114050000D03*
X120449999Y-113250000D03*
X120449999Y-112450000D03*
X120449999Y-111650000D03*
X120449999Y-110850000D03*
X120449999Y-110050001D03*
%TD*%
D23*
%TO.C,R18*%
X105482500Y-124030000D03*
X104617500Y-124030000D03*
%TD*%
D17*
%TO.C,C32*%
X118900000Y-122140000D03*
X118900000Y-123005000D03*
%TD*%
D26*
%TO.C,C77*%
X103900000Y-114082500D03*
X103900000Y-115217500D03*
%TD*%
D11*
%TO.C,R6*%
X116555000Y-131210000D03*
X117420000Y-131210000D03*
%TD*%
D20*
%TO.C,R27*%
X119650000Y-103982500D03*
X119650000Y-103117500D03*
%TD*%
D37*
%TO.C,IC6*%
X125340000Y-119242500D03*
X125340000Y-118242500D03*
X125340000Y-117242500D03*
X125340000Y-116242500D03*
X126340000Y-120242500D03*
X126340000Y-119242500D03*
X126340000Y-118242500D03*
X126340000Y-117242500D03*
X126340000Y-116242500D03*
X127340000Y-120242500D03*
X127340000Y-119242500D03*
X127340000Y-118242500D03*
X127340000Y-117242500D03*
X127340000Y-116242500D03*
X128340000Y-120242500D03*
X128340000Y-119242500D03*
X128340000Y-118242500D03*
X128340000Y-117242500D03*
X128340000Y-116242500D03*
X129340000Y-120242500D03*
X129340000Y-119242500D03*
X129340000Y-118242500D03*
X129340000Y-117242500D03*
X129340000Y-116242500D03*
%TD*%
D17*
%TO.C,R22*%
X119650000Y-101317500D03*
X119650000Y-102182500D03*
%TD*%
D23*
%TO.C,R5*%
X117420000Y-130500000D03*
X116555000Y-130500000D03*
%TD*%
D20*
%TO.C,R28*%
X106350000Y-111832500D03*
X106350000Y-110967500D03*
%TD*%
D38*
%TO.C,FL5*%
X110237000Y-101540000D03*
X110237000Y-101940000D03*
X110237000Y-102340000D03*
X110237000Y-102740000D03*
X110237000Y-103140000D03*
X110237000Y-103540000D03*
X110237000Y-103940000D03*
X110237000Y-104340000D03*
X111387000Y-104340000D03*
X111387000Y-103940000D03*
X111387000Y-103540000D03*
X111387000Y-103140000D03*
X111387000Y-102740000D03*
X111387000Y-102340000D03*
X111387000Y-101940000D03*
X111387000Y-101540000D03*
D39*
X110812000Y-102940000D03*
%TD*%
D35*
%TO.C,FL9*%
X104670000Y-121800000D03*
X104670000Y-122200000D03*
X104670000Y-122600000D03*
X105720000Y-122600000D03*
X105720000Y-122200000D03*
X105720000Y-121800000D03*
%TD*%
D20*
%TO.C,C66*%
X108650000Y-125942500D03*
X108650000Y-125077500D03*
%TD*%
D40*
%TO.C,L5*%
X113050000Y-122670000D03*
X114650000Y-122670000D03*
%TD*%
D41*
%TO.C,J8*%
X125350000Y-99780000D03*
X124550000Y-99780000D03*
X123750000Y-99780000D03*
X122950000Y-99780000D03*
X122150000Y-99780000D03*
X121350000Y-99780000D03*
D42*
X126600000Y-97860000D03*
X120100000Y-97860000D03*
%TD*%
D34*
%TO.C,L4*%
X111900000Y-132170000D03*
X113900000Y-132170000D03*
%TD*%
D30*
%TO.C,C51*%
X119292500Y-132750000D03*
X117567500Y-132750000D03*
%TD*%
D29*
%TO.C,C54*%
X117400000Y-124200000D03*
X119125000Y-124200000D03*
%TD*%
D20*
%TO.C,R40*%
X108480000Y-104592500D03*
X108480000Y-103727500D03*
%TD*%
D43*
%TO.C,LED1*%
X105710000Y-100655000D03*
X105710000Y-102405000D03*
X104710000Y-102405000D03*
X104710000Y-100655000D03*
%TD*%
D18*
%TO.C,Q1*%
X120500000Y-102850000D03*
X121150000Y-102850000D03*
D44*
X120825000Y-102160000D03*
D45*
X120825000Y-101770000D03*
%TD*%
D23*
%TO.C,R17*%
X105482500Y-119590000D03*
X104617500Y-119590000D03*
%TD*%
D11*
%TO.C,C68*%
X106140500Y-115833000D03*
X107005500Y-115833000D03*
%TD*%
D46*
%TO.C,D3*%
X98040000Y-113140000D03*
X102240000Y-113140000D03*
%TD*%
D17*
%TO.C,C31*%
X119600000Y-122140000D03*
X119600000Y-123005000D03*
%TD*%
D23*
%TO.C,R20*%
X105472500Y-117870000D03*
X104607500Y-117870000D03*
%TD*%
D17*
%TO.C,R7*%
X132000000Y-121917500D03*
X132000000Y-122782500D03*
%TD*%
%TO.C,R9*%
X126450000Y-122685000D03*
X126450000Y-123550000D03*
%TD*%
D20*
%TO.C,C44*%
X122050000Y-126580000D03*
X122050000Y-125715000D03*
%TD*%
D10*
%TO.C,C37*%
X110185000Y-124300000D03*
X111320000Y-124300000D03*
%TD*%
D17*
%TO.C,R15*%
X109210000Y-127437500D03*
X109210000Y-128302500D03*
%TD*%
D47*
%TO.C,J2*%
X102680000Y-118300000D03*
X102680000Y-119100000D03*
D48*
X102680000Y-120250000D03*
X102680000Y-121250000D03*
X102680000Y-121750000D03*
X102680000Y-122750000D03*
D47*
X102680000Y-123900000D03*
X102680000Y-124700000D03*
X102680000Y-124700000D03*
X102680000Y-123900000D03*
D48*
X102680000Y-123250000D03*
X102680000Y-122250000D03*
X102680000Y-120750000D03*
X102680000Y-119750000D03*
D47*
X102680000Y-119100000D03*
X102680000Y-118300000D03*
D49*
X102105000Y-116390000D03*
X98175000Y-116390000D03*
X102105000Y-126610000D03*
X98175000Y-126610000D03*
%TD*%
D11*
%TO.C,C78*%
X104877500Y-99150000D03*
X105742500Y-99150000D03*
%TD*%
D50*
%TO.C,IC1*%
X108410000Y-131460000D03*
X108410000Y-131960000D03*
X108410000Y-132460000D03*
X108410000Y-132960000D03*
X110210000Y-132960000D03*
X110210000Y-132460000D03*
X110210000Y-131960000D03*
X110210000Y-131460000D03*
D51*
X109310000Y-132210000D03*
%TD*%
D52*
%TO.C,Y2*%
X106190000Y-125920000D03*
X107590000Y-125920000D03*
%TD*%
D24*
%TO.C,C45*%
X125575000Y-124767500D03*
X125575000Y-123632500D03*
%TD*%
D17*
%TO.C,C65*%
X104940000Y-125897500D03*
X104940000Y-126762500D03*
%TD*%
D20*
%TO.C,C40*%
X127110000Y-127122500D03*
X127110000Y-126257500D03*
%TD*%
D10*
%TO.C,C70*%
X104690000Y-118710000D03*
X105825000Y-118710000D03*
%TD*%
D17*
%TO.C,R2*%
X122040000Y-132067500D03*
X122040000Y-132932500D03*
%TD*%
D37*
%TO.C,IC7*%
X129340000Y-110442500D03*
X129340000Y-111442500D03*
X129340000Y-112442500D03*
X129340000Y-113442500D03*
X128340000Y-109442500D03*
X128340000Y-110442500D03*
X128340000Y-111442500D03*
X128340000Y-112442500D03*
X128340000Y-113442500D03*
X127340000Y-109442500D03*
X127340000Y-110442500D03*
X127340000Y-111442500D03*
X127340000Y-112442500D03*
X127340000Y-113442500D03*
X126340000Y-109442500D03*
X126340000Y-110442500D03*
X126340000Y-111442500D03*
X126340000Y-112442500D03*
X126340000Y-113442500D03*
X125340000Y-109442500D03*
X125340000Y-110442500D03*
X125340000Y-111442500D03*
X125340000Y-112442500D03*
X125340000Y-113442500D03*
%TD*%
D23*
%TO.C,C80*%
X125632500Y-122450000D03*
X124767500Y-122450000D03*
%TD*%
D11*
%TO.C,C79*%
X128217500Y-107550000D03*
X129082500Y-107550000D03*
%TD*%
D20*
%TO.C,R3*%
X109110000Y-130550000D03*
X109110000Y-129685000D03*
%TD*%
D17*
%TO.C,C39*%
X127130000Y-128047500D03*
X127130000Y-128912500D03*
%TD*%
D53*
%TO.C,D1*%
X132525000Y-120342000D03*
D54*
X132525000Y-121008000D03*
%TD*%
D25*
%TO.C,C47*%
X107130000Y-132322500D03*
X107130000Y-130597500D03*
%TD*%
D23*
%TO.C,R23*%
X121382500Y-104350000D03*
X120517500Y-104350000D03*
%TD*%
D31*
%TO.C,IC3*%
X123290000Y-126550000D03*
X123290000Y-127500000D03*
X123290000Y-128450000D03*
X125790000Y-128450000D03*
X125790000Y-126550000D03*
%TD*%
D20*
%TO.C,R1*%
X114650000Y-125192500D03*
X114650000Y-124327500D03*
%TD*%
D55*
%TO.C,Y1*%
X105946000Y-114840000D03*
X107220000Y-114840000D03*
X107220000Y-113866000D03*
X105946000Y-113866000D03*
%TD*%
D31*
%TO.C,IC2*%
X130170000Y-124780000D03*
X130170000Y-123830000D03*
X130170000Y-122880000D03*
X127670000Y-122880000D03*
X127670000Y-124780000D03*
%TD*%
M02*
