%TF.GenerationSoftware,KiCad,Pcbnew,10.0.0*%
%TF.CreationDate,2026-04-10T14:49:03+02:00*%
%TF.ProjectId,BOARD_V1,424f4152-445f-4563-912e-6b696361645f,rev?*%
%TF.SameCoordinates,Original*%
%TF.FileFunction,Soldermask,Bot*%
%TF.FilePolarity,Negative*%
%FSLAX46Y46*%
G04 Gerber Fmt 4.6, Leading zero omitted, Abs format (unit mm)*
G04 Created by KiCad (PCBNEW 10.0.0) date 2026-04-10 14:49:03*
%MOMM*%
%LPD*%
G01*
G04 APERTURE LIST*
G04 Aperture macros list*
%AMRoundRect*
0 Rectangle with rounded corners*
0 $1 Rounding radius*
0 $2 $3 $4 $5 $6 $7 $8 $9 X,Y pos of 4 corners*
0 Add a 4 corners polygon primitive as box body*
4,1,4,$2,$3,$4,$5,$6,$7,$8,$9,$2,$3,0*
0 Add four circle primitives for the rounded corners*
1,1,$1+$1,$2,$3*
1,1,$1+$1,$4,$5*
1,1,$1+$1,$6,$7*
1,1,$1+$1,$8,$9*
0 Add four rect primitives between the rounded corners*
20,1,$1+$1,$2,$3,$4,$5,0*
20,1,$1+$1,$4,$5,$6,$7,0*
20,1,$1+$1,$6,$7,$8,$9,0*
20,1,$1+$1,$8,$9,$2,$3,0*%
G04 Aperture macros list end*
%ADD10C,0.700000*%
%ADD11C,4.400000*%
%ADD12C,0.650000*%
%ADD13RoundRect,0.100000X0.217500X0.100000X-0.217500X0.100000X-0.217500X-0.100000X0.217500X-0.100000X0*%
%ADD14RoundRect,0.155000X-0.212500X-0.155000X0.212500X-0.155000X0.212500X0.155000X-0.212500X0.155000X0*%
%ADD15R,0.500000X1.000000*%
%ADD16R,0.900000X1.600000*%
%ADD17RoundRect,0.100000X-0.217500X-0.100000X0.217500X-0.100000X0.217500X0.100000X-0.217500X0.100000X0*%
%ADD18RoundRect,0.100000X-0.100000X0.217500X-0.100000X-0.217500X0.100000X-0.217500X0.100000X0.217500X0*%
%ADD19R,0.300000X1.000000*%
%ADD20R,1.650000X1.300000*%
%ADD21R,0.200000X0.700000*%
%ADD22RoundRect,0.100000X0.100000X-0.217500X0.100000X0.217500X-0.100000X0.217500X-0.100000X-0.217500X0*%
%ADD23RoundRect,0.155000X0.155000X-0.212500X0.155000X0.212500X-0.155000X0.212500X-0.155000X-0.212500X0*%
%ADD24R,0.950000X1.000000*%
%ADD25R,0.600000X2.000000*%
%ADD26R,0.700000X4.200000*%
%ADD27RoundRect,0.155000X-0.155000X0.212500X-0.155000X-0.212500X0.155000X-0.212500X0.155000X0.212500X0*%
%ADD28RoundRect,0.155000X0.212500X0.155000X-0.212500X0.155000X-0.212500X-0.155000X0.212500X-0.155000X0*%
G04 APERTURE END LIST*
D10*
%TO.C,H9*%
X128850000Y-130500000D03*
X129333274Y-129333274D03*
X129333274Y-131666726D03*
X130500000Y-128850000D03*
D11*
X130500000Y-130500000D03*
D10*
X130500000Y-132150000D03*
X131666726Y-129333274D03*
X131666726Y-131666726D03*
X132150000Y-130500000D03*
%TD*%
%TO.C,H6*%
X98350000Y-100000000D03*
X98833274Y-98833274D03*
X98833274Y-101166726D03*
X100000000Y-98350000D03*
D11*
X100000000Y-100000000D03*
D10*
X100000000Y-101650000D03*
X101166726Y-98833274D03*
X101166726Y-101166726D03*
X101650000Y-100000000D03*
%TD*%
%TO.C,H8*%
X128850000Y-100000000D03*
X129333274Y-98833274D03*
X129333274Y-101166726D03*
X130500000Y-98350000D03*
D11*
X130500000Y-100000000D03*
D10*
X130500000Y-101650000D03*
X131666726Y-98833274D03*
X131666726Y-101166726D03*
X132150000Y-100000000D03*
%TD*%
%TO.C,H7*%
X98350000Y-130500000D03*
X98833274Y-129333274D03*
X98833274Y-131666726D03*
X100000000Y-128850000D03*
D11*
X100000000Y-130500000D03*
D10*
X100000000Y-132150000D03*
X101166726Y-129333274D03*
X101166726Y-131666726D03*
X101650000Y-130500000D03*
%TD*%
D12*
%TO.C,J2*%
X101605000Y-118610000D03*
X101605000Y-124390000D03*
%TD*%
D13*
%TO.C,C25*%
X112425000Y-117270000D03*
X111610000Y-117270000D03*
%TD*%
%TO.C,C11*%
X116467500Y-112590000D03*
X115652500Y-112590000D03*
%TD*%
D14*
%TO.C,C33*%
X110362500Y-121380000D03*
X111497500Y-121380000D03*
%TD*%
D15*
%TO.C,J9*%
X105400000Y-100410000D03*
X106200000Y-100410000D03*
X107000000Y-100410000D03*
X107800000Y-100410000D03*
X108600000Y-100410000D03*
X109400000Y-100410000D03*
D16*
X104150000Y-98490000D03*
X110650000Y-98490000D03*
%TD*%
D17*
%TO.C,C28*%
X113262500Y-121190000D03*
X114077500Y-121190000D03*
%TD*%
D13*
%TO.C,C7*%
X114687500Y-113260000D03*
X113872500Y-113260000D03*
%TD*%
D17*
%TO.C,C61*%
X126392500Y-108682500D03*
X127207500Y-108682500D03*
%TD*%
D13*
%TO.C,C71*%
X111707500Y-118850000D03*
X110892500Y-118850000D03*
%TD*%
D18*
%TO.C,C63*%
X123970000Y-112442500D03*
X123970000Y-113257500D03*
%TD*%
D17*
%TO.C,C8*%
X113272500Y-114040000D03*
X114087500Y-114040000D03*
%TD*%
D18*
%TO.C,C59*%
X124670000Y-112442500D03*
X124670000Y-113257500D03*
%TD*%
D19*
%TO.C,J5*%
X120335000Y-101420000D03*
X120835000Y-101420000D03*
X121335000Y-101420000D03*
X121835000Y-101420000D03*
X122335000Y-101420000D03*
X122835000Y-101420000D03*
X123335000Y-101420000D03*
X123835000Y-101420000D03*
D20*
X118060000Y-99520000D03*
X126110000Y-99520000D03*
%TD*%
D18*
%TO.C,C55*%
X126330000Y-117322500D03*
X126330000Y-118137500D03*
%TD*%
%TO.C,C27*%
X118100000Y-118072500D03*
X118100000Y-118887500D03*
%TD*%
D21*
%TO.C,FL8*%
X114950000Y-125075000D03*
X114550000Y-125075000D03*
X114150000Y-125075000D03*
X114150000Y-124025000D03*
X114550000Y-124025000D03*
X114950000Y-124025000D03*
%TD*%
%TO.C,FL6*%
X120950000Y-125055000D03*
X120550000Y-125055000D03*
X120150000Y-125055000D03*
X120150000Y-124005000D03*
X120550000Y-124005000D03*
X120950000Y-124005000D03*
%TD*%
D22*
%TO.C,C17*%
X118030000Y-115627500D03*
X118030000Y-114812500D03*
%TD*%
D14*
%TO.C,C62*%
X126382500Y-107172500D03*
X127517500Y-107172500D03*
%TD*%
D17*
%TO.C,C9*%
X113272500Y-114740000D03*
X114087500Y-114740000D03*
%TD*%
D23*
%TO.C,C23*%
X116360000Y-118427500D03*
X116360000Y-117292500D03*
%TD*%
D22*
%TO.C,C26*%
X118800000Y-118890000D03*
X118800000Y-118075000D03*
%TD*%
D21*
%TO.C,FL7*%
X117960000Y-125075000D03*
X117560000Y-125075000D03*
X117160000Y-125075000D03*
X117160000Y-124025000D03*
X117560000Y-124025000D03*
X117960000Y-124025000D03*
%TD*%
D13*
%TO.C,C12*%
X119557500Y-116510000D03*
X118742500Y-116510000D03*
%TD*%
D24*
%TO.C,FB1*%
X112120000Y-122620000D03*
X110520000Y-122620000D03*
%TD*%
D13*
%TO.C,C13*%
X116637500Y-115420000D03*
X115822500Y-115420000D03*
%TD*%
D25*
%TO.C,J1*%
X122250000Y-127550000D03*
X121250000Y-127550000D03*
X120250000Y-127550000D03*
X119250000Y-127550000D03*
X118250000Y-127550000D03*
X117250000Y-127550000D03*
X116250000Y-127550000D03*
X115250000Y-127550000D03*
X114250000Y-127550000D03*
X113250000Y-127550000D03*
X112250000Y-127550000D03*
X111250000Y-127550000D03*
X110250000Y-127550000D03*
X109250000Y-127550000D03*
X108250000Y-127550000D03*
D26*
X123250000Y-129650000D03*
X107250000Y-129650000D03*
%TD*%
D13*
%TO.C,C20*%
X115387500Y-120310000D03*
X114572500Y-120310000D03*
%TD*%
D27*
%TO.C,C60*%
X123150000Y-112432500D03*
X123150000Y-113567500D03*
%TD*%
D13*
%TO.C,C19*%
X115387500Y-119610000D03*
X114572500Y-119610000D03*
%TD*%
%TO.C,C21*%
X115387500Y-118210000D03*
X114572500Y-118210000D03*
%TD*%
%TO.C,C15*%
X116637500Y-114020000D03*
X115822500Y-114020000D03*
%TD*%
%TO.C,C6*%
X114687500Y-112550000D03*
X113872500Y-112550000D03*
%TD*%
%TO.C,C56*%
X128257500Y-120960000D03*
X127442500Y-120960000D03*
%TD*%
D18*
%TO.C,C24*%
X109170000Y-118532500D03*
X109170000Y-119347500D03*
%TD*%
D28*
%TO.C,C58*%
X128457500Y-121770000D03*
X127322500Y-121770000D03*
%TD*%
D13*
%TO.C,C10*%
X116457500Y-113290000D03*
X115642500Y-113290000D03*
%TD*%
D27*
%TO.C,C22*%
X116340000Y-119482500D03*
X116340000Y-120617500D03*
%TD*%
D13*
%TO.C,C14*%
X116637500Y-114720000D03*
X115822500Y-114720000D03*
%TD*%
%TO.C,C5*%
X114687500Y-111850000D03*
X113872500Y-111850000D03*
%TD*%
%TO.C,C29*%
X120437500Y-117980000D03*
X119622500Y-117980000D03*
%TD*%
D17*
%TO.C,C16*%
X117592500Y-113780000D03*
X118407500Y-113780000D03*
%TD*%
%TO.C,C64*%
X126392500Y-107982500D03*
X127207500Y-107982500D03*
%TD*%
D13*
%TO.C,C30*%
X111707500Y-118000000D03*
X110892500Y-118000000D03*
%TD*%
D22*
%TO.C,R11*%
X114200000Y-116397500D03*
X114200000Y-115582500D03*
%TD*%
D13*
%TO.C,R10*%
X119557500Y-117240000D03*
X118742500Y-117240000D03*
%TD*%
%TO.C,C18*%
X115387500Y-118910000D03*
X114572500Y-118910000D03*
%TD*%
D22*
%TO.C,C57*%
X130020000Y-117157500D03*
X130020000Y-116342500D03*
%TD*%
M02*
