M48
; DRILL file KiCad 10.0.0 date 2026-04-10T14:48:59
; FORMAT={-:-/ absolute / metric / decimal}
; #@! TF.CreationDate,2026-04-10T14:48:59+02:00
; #@! TF.GenerationSoftware,Kicad,Pcbnew,10.0.0
; #@! TF.FileFunction,Plated,1,8,PTH
FMAT,2
METRIC
; #@! TA.AperFunction,Plated,PTH,ViaDrill
T1C0.300
; #@! TA.AperFunction,Plated,PTH,ComponentDrill
T2C0.400
; #@! TA.AperFunction,Plated,PTH,ComponentDrill
T3C2.200
%
G90
G05
T1
X97.69Y-112.79
X97.69Y-113.49
X97.75Y-102.75
X97.75Y-105.25
X97.75Y-107.75
X97.75Y-110.25
X97.75Y-115.25
X97.75Y-117.75
X97.75Y-120.25
X97.75Y-122.75
X97.75Y-125.25
X97.75Y-127.75
X98.39Y-112.79
X98.39Y-113.49
X98.79Y-103.605
X98.79Y-111.055
X98.925Y-115.64
X98.925Y-117.14
X98.925Y-125.86
X98.925Y-127.36
X100.34Y-121.75
X100.34Y-122.55
X101.14Y-121.75
X101.14Y-122.55
X101.355Y-115.64
X101.355Y-117.14
X101.4Y-103.8
X101.99Y-105.455
X102.6Y-102.2
X102.68Y-118.3
X102.68Y-124.7
X102.75Y-97.75
X102.75Y-132.75
X102.855Y-115.64
X102.855Y-117.14
X102.855Y-125.86
X103.7Y-111.65
X104.06Y-108.4
X104.22Y-99.49
X104.3Y-120.7
X104.34Y-128.02
X104.34Y-128.82
X104.34Y-132.22
X104.34Y-133.02
X104.35Y-113.2
X104.5Y-109.225
X104.5Y-112.475
X104.5Y-122.9
X104.9Y-114.35
X105.14Y-128.02
X105.14Y-128.82
X105.14Y-132.22
X105.14Y-133.02
X105.25Y-97.75
X105.4Y-110.05
X105.447Y-117.54
X105.55Y-111.85
X105.63Y-108.46
X105.7Y-119.2
X105.718Y-99.49
X105.82Y-106.51
X105.946Y-113.866
X106.24Y-98.68
X106.37Y-112.05
X106.4Y-117.1
X107.0Y-99.13
X107.1Y-123.3
X107.22Y-114.84
X107.23Y-112.03
X107.25Y-128.85
X107.25Y-129.65
X107.25Y-130.45
X107.75Y-97.75
X107.8Y-106.1
X107.81Y-98.76
X108.025Y-115.825
X108.25Y-128.317
X108.3Y-105.5
X108.3Y-133.2
X108.48Y-104.567
X108.53Y-101.51
X108.54Y-102.33
X108.62Y-99.24
X109.12Y-103.07
X109.17Y-118.532
X109.19Y-105.28
X109.2Y-105.99
X109.2Y-120.8
X109.21Y-127.462
X109.3Y-133.2
X109.31Y-106.77
X109.31Y-131.51
X109.44Y-119.98
X109.45Y-129.65
X109.91Y-108.97
X110.05Y-110.05
X110.05Y-120.45
X110.1Y-131.3
X110.24Y-100.23
X110.25Y-97.75
X110.26Y-127.44
X110.9Y-131.45
X111.05Y-122.7
X111.05Y-123.3
X111.1Y-100.45
X111.137Y-130.1
X111.25Y-127.55
X111.4Y-101.2
X111.45Y-124.35
X111.45Y-125.15
X111.65Y-115.65
X111.65Y-116.45
X111.65Y-119.65
X112.25Y-124.35
X112.25Y-125.15
X112.25Y-127.55
X112.45Y-114.85
X112.45Y-115.65
X112.45Y-116.45
X112.45Y-118.05
X112.45Y-118.85
X112.45Y-119.65
X112.45Y-120.45
X112.75Y-97.75
X112.9Y-117.625
X113.25Y-114.05
X113.25Y-114.85
X113.25Y-115.65
X113.25Y-116.45
X113.25Y-118.85
X113.25Y-119.65
X113.25Y-120.45
X113.6Y-131.9
X113.61Y-117.65
X113.94Y-107.825
X114.03Y-108.51
X114.05Y-109.49
X114.05Y-113.25
X114.05Y-118.05
X114.05Y-118.85
X114.05Y-119.65
X114.05Y-120.45
X114.097Y-102.57
X114.097Y-104.77
X114.2Y-116.397
X114.4Y-117.25
X114.45Y-110.43
X114.55Y-114.35
X114.55Y-115.05
X114.6Y-131.9
X114.66Y-109.46
X114.85Y-111.65
X114.85Y-112.45
X114.85Y-113.25
X115.077Y-108.12
X115.25Y-114.35
X115.25Y-115.05
X115.27Y-109.04
X115.3Y-104.0
X115.35Y-130.838
X115.4Y-99.2
X115.4Y-101.65
X115.6Y-131.9
X115.65Y-112.45
X115.65Y-113.25
X115.65Y-118.05
X115.65Y-118.85
X115.65Y-119.65
X115.65Y-120.45
X115.75Y-124.05
X115.75Y-125.05
X115.75Y-126.05
X115.822Y-97.645
X116.05Y-111.25
X116.07Y-110.45
X116.45Y-113.25
X116.468Y-112.59
X116.577Y-108.12
X116.6Y-133.25
X116.73Y-109.23
X116.85Y-110.45
X116.85Y-112.042
X117.0Y-103.15
X117.072Y-97.42
X117.15Y-100.7
X117.25Y-114.05
X117.25Y-114.85
X117.25Y-115.65
X117.25Y-116.45
X117.25Y-117.25
X117.25Y-118.85
X117.25Y-119.65
X117.63Y-109.31
X117.7Y-133.25
X117.725Y-99.25
X118.05Y-115.65
X118.05Y-118.05
X118.077Y-108.12
X118.15Y-129.85
X118.35Y-129.05
X118.4Y-130.57
X118.45Y-110.45
X118.47Y-109.31
X118.49Y-111.16
X118.7Y-102.2
X118.85Y-118.05
X118.85Y-118.85
X119.1Y-130.57
X119.15Y-123.925
X119.15Y-124.925
X119.15Y-125.925
X119.2Y-115.28
X119.24Y-109.31
X119.26Y-114.44
X119.35Y-132.75
X119.53Y-101.432
X119.65Y-116.45
X119.65Y-117.25
X119.7Y-100.55
X119.7Y-107.0
X119.75Y-105.65
X119.8Y-130.57
X120.0Y-109.32
X120.05Y-110.425
X120.15Y-103.7
X120.15Y-132.75
X120.25Y-97.75
X120.45Y-115.65
X120.45Y-116.45
X120.45Y-117.25
X120.55Y-99.2
X120.55Y-105.65
X120.6Y-100.15
X120.9Y-121.15
X120.95Y-132.75
X120.96Y-115.2
X121.32Y-115.9
X121.35Y-105.65
X121.35Y-121.7
X121.4Y-98.85
X121.55Y-113.325
X121.95Y-102.55
X122.0Y-98.7
X122.05Y-125.74
X122.15Y-99.78
X122.25Y-127.55
X122.35Y-131.15
X122.5Y-115.15
X122.7Y-102.55
X122.725Y-110.825
X122.75Y-97.75
X122.75Y-132.75
X122.85Y-120.1
X122.95Y-99.78
X122.95Y-117.8
X123.025Y-123.975
X123.1Y-121.052
X123.1Y-121.568
X123.117Y-116.372
X123.117Y-116.888
X123.13Y-118.72
X123.13Y-119.236
X123.15Y-112.432
X123.2Y-106.2
X123.29Y-127.5
X123.3Y-131.11
X123.75Y-99.78
X124.2Y-125.8
X124.55Y-99.78
X124.775Y-123.975
X125.0Y-105.4
X125.25Y-97.75
X125.25Y-132.8
X125.34Y-109.442
X125.34Y-110.442
X125.34Y-111.442
X125.372Y-102.35
X125.382Y-101.44
X125.4Y-130.16
X125.607Y-122.462
X125.79Y-126.55
X125.83Y-119.76
X126.0Y-124.8
X126.11Y-99.52
X126.175Y-121.05
X126.2Y-130.16
X126.34Y-109.442
X126.34Y-110.442
X126.34Y-111.442
X126.34Y-112.442
X126.34Y-113.442
X126.34Y-117.242
X126.34Y-118.242
X126.4Y-125.65
X126.462Y-122.112
X126.8Y-124.8
X127.2Y-105.0
X127.325Y-122.15
X127.34Y-111.442
X127.34Y-112.442
X127.45Y-121.3
X127.6Y-124.8
X127.75Y-97.75
X127.75Y-132.75
X127.79Y-109.81
X127.81Y-118.72
X127.812Y-116.712
X127.86Y-119.72
X127.94Y-117.64
X128.243Y-107.55
X128.275Y-121.3
X128.34Y-110.442
X128.34Y-116.242
X128.4Y-103.0
X128.75Y-115.65
X128.81Y-119.77
X128.82Y-117.77
X129.05Y-123.8
X129.1Y-107.1
X129.34Y-117.242
X129.675Y-121.25
X129.7Y-108.15
X129.84Y-118.73
X129.87Y-119.73
X130.0Y-105.2
X130.0Y-125.6
X130.17Y-122.88
X130.8Y-125.6
X130.825Y-120.45
X131.2Y-110.8
X131.2Y-112.1
X131.525Y-119.0
X131.55Y-116.3
X131.6Y-125.6
X131.63Y-123.762
X132.0Y-112.257
X132.0Y-122.757
X132.2Y-116.757
X132.525Y-120.342
X132.7Y-119.5
X132.75Y-102.75
X132.75Y-105.25
X132.75Y-107.75
X132.75Y-110.25
X132.75Y-115.25
X132.75Y-117.75
X132.75Y-122.75
X132.75Y-125.25
X132.75Y-127.75
X132.775Y-113.975
X133.25Y-112.95
X133.25Y-121.65
T2
X98.35Y-100.0
X98.35Y-130.5
X98.833Y-98.833
X98.833Y-101.167
X98.833Y-129.333
X98.833Y-131.667
X100.0Y-98.35
X100.0Y-101.65
X100.0Y-128.85
X100.0Y-132.15
X101.167Y-98.833
X101.167Y-101.167
X101.167Y-129.333
X101.167Y-131.667
X101.65Y-100.0
X101.65Y-130.5
X128.85Y-100.0
X128.85Y-130.5
X129.333Y-98.833
X129.333Y-101.167
X129.333Y-129.333
X129.333Y-131.667
X130.5Y-98.35
X130.5Y-101.65
X130.5Y-128.85
X130.5Y-132.15
X131.667Y-98.833
X131.667Y-101.167
X131.667Y-129.333
X131.667Y-131.667
X132.15Y-100.0
X132.15Y-130.5
T3
X100.0Y-100.0
X100.0Y-130.5
X130.5Y-100.0
X130.5Y-130.5
M30
